HIERARCHY
ROOT Root
{
  OFFSET 0.0 0.0 0.0
  CHANNELS 6 Xposition Yposition Zposition Zrotation Yrotation Xrotation
  JOINT Hips
  {
    OFFSET 0.0 100.0 0.0
    CHANNELS 6 Xposition Yposition Zposition Zrotation Yrotation Xrotation
    JOINT Spine1
    {
      OFFSET 5.003913 -0.037094 -0.013727
      CHANNELS 3 Zrotation Yrotation Xrotation
      JOINT Spine2
      {
        OFFSET 7.125363 -1e-06 0.0
        CHANNELS 3 Zrotation Yrotation Xrotation
        JOINT Chest
        {
          OFFSET 7.594027 1e-06 0.0
          CHANNELS 3 Zrotation Yrotation Xrotation
          JOINT Neck1
          {
            OFFSET 26.313086 -0.460272 -0.181672
            CHANNELS 3 Zrotation Yrotation Xrotation
            JOINT Neck2
            {
              OFFSET 8.045911 0.0 0.0
              CHANNELS 3 Zrotation Yrotation Xrotation
              JOINT Head
              {
                OFFSET 6.432774 0.0 0.0
                CHANNELS 3 Zrotation Yrotation Xrotation
                JOINT HeadEnd
                {
                  OFFSET 16.169773 0.06451 0.00362
                  CHANNELS 3 Zrotation Yrotation Xrotation
                }
                JOINT Jaw
                {
                  OFFSET 0.108741 3.12938 0.002639
                  CHANNELS 3 Zrotation Yrotation Xrotation
                }
                JOINT LeftEye
                {
                  OFFSET 4.45173 8.166359 3.206392
                  CHANNELS 3 Zrotation Yrotation Xrotation
                }
                JOINT RightEye
                {
                  OFFSET 4.436895 8.135758 -3.222429
                  CHANNELS 3 Zrotation Yrotation Xrotation
                }
              }
            }
          }
          JOINT LeftShoulder
          {
            OFFSET 23.218927 5.195579 1.621656
            CHANNELS 3 Zrotation Yrotation Xrotation
            JOINT LeftArm
            {
              OFFSET 15.902118 2e-06 -2e-06
              CHANNELS 3 Zrotation Yrotation Xrotation
              JOINT LeftForeArm
              {
                OFFSET 28.739307 0.0 -1e-06
                CHANNELS 3 Zrotation Yrotation Xrotation
                JOINT LeftHand
                {
                  OFFSET 27.093981 -4e-06 0.0
                  CHANNELS 3 Zrotation Yrotation Xrotation
                  JOINT LeftHandThumb1
                  {
                    OFFSET 2.276781 3.380274 0.83384
                    CHANNELS 3 Zrotation Yrotation Xrotation
                    JOINT LeftHandThumb2
                    {
                      OFFSET 4.705309 -1e-06 -1e-06
                      CHANNELS 3 Zrotation Yrotation Xrotation
                      JOINT LeftHandThumb3
                      {
                        OFFSET 2.798515 0.0 3e-06
                        CHANNELS 3 Zrotation Yrotation Xrotation
                        JOINT LeftHandThumbEnd
                        {
                          OFFSET 3.180793 4e-06 -4e-06
                          CHANNELS 3 Zrotation Yrotation Xrotation
                        }
                      }
                    }
                  }
                  JOINT LeftHandIndex1
                  {
                    OFFSET 3.247786 2.352677 0.137192
                    CHANNELS 3 Zrotation Yrotation Xrotation
                    JOINT LeftHandIndex2
                    {
                      OFFSET 6.367095 1e-06 0.0
                      CHANNELS 3 Zrotation Yrotation Xrotation
                      JOINT LeftHandIndex3
                      {
                        OFFSET 3.662364 0.0 0.0
                        CHANNELS 3 Zrotation Yrotation Xrotation
                        JOINT LeftHandIndex4
                        {
                          OFFSET 2.329242 4e-06 -4e-06
                          CHANNELS 3 Zrotation Yrotation Xrotation
                          JOINT LeftHandIndexEnd
                          {
                            OFFSET 2.767823 1e-06 0.0
                            CHANNELS 3 Zrotation Yrotation Xrotation
                          }
                        }
                      }
                    }
                  }
                  JOINT LeftHandMiddle1
                  {
                    OFFSET 3.163612 0.945023 -0.406112
                    CHANNELS 3 Zrotation Yrotation Xrotation
                    JOINT LeftHandMiddle2
                    {
                      OFFSET 6.276789 3e-06 0.0
                      CHANNELS 3 Zrotation Yrotation Xrotation
                      JOINT LeftHandMiddle3
                      {
                        OFFSET 4.35652 -1e-06 4e-06
                        CHANNELS 3 Zrotation Yrotation Xrotation
                        JOINT LeftHandMiddle4
                        {
                          OFFSET 2.996877 0.0 8e-06
                          CHANNELS 3 Zrotation Yrotation Xrotation
                          JOINT LeftHandMiddleEnd
                          {
                            OFFSET 2.323256 3e-06 -4e-06
                            CHANNELS 3 Zrotation Yrotation Xrotation
                          }
                        }
                      }
                    }
                  }
                  JOINT LeftHandRing1
                  {
                    OFFSET 2.882606 -0.309162 0.107445
                    CHANNELS 3 Zrotation Yrotation Xrotation
                    JOINT LeftHandRing2
                    {
                      OFFSET 6.033198 0.0 4e-06
                      CHANNELS 3 Zrotation Yrotation Xrotation
                      JOINT LeftHandRing3
                      {
                        OFFSET 4.350578 3e-06 0.0
                        CHANNELS 3 Zrotation Yrotation Xrotation
                        JOINT LeftHandRing4
                        {
                          OFFSET 2.651321 2e-06 -7e-06
                          CHANNELS 3 Zrotation Yrotation Xrotation
                          JOINT LeftHandRingEnd
                          {
                            OFFSET 1.937663 1e-06 -4e-06
                            CHANNELS 3 Zrotation Yrotation Xrotation
                          }
                        }
                      }
                    }
                  }
                  JOINT LeftHandPinky1
                  {
                    OFFSET 2.865315 -1.525436 0.575687
                    CHANNELS 3 Zrotation Yrotation Xrotation
                    JOINT LeftHandPinky2
                    {
                      OFFSET 5.54936 1e-06 -8e-06
                      CHANNELS 3 Zrotation Yrotation Xrotation
                      JOINT LeftHandPinky3
                      {
                        OFFSET 3.070974 0.0 -4e-06
                        CHANNELS 3 Zrotation Yrotation Xrotation
                        JOINT LeftHandPinky4
                        {
                          OFFSET 1.549672 1e-06 0.0
                          CHANNELS 3 Zrotation Yrotation Xrotation
                          JOINT LeftHandPinkyEnd
                          {
                            OFFSET 1.952123 0.0 0.0
                            CHANNELS 3 Zrotation Yrotation Xrotation
                          }
                        }
                      }
                    }
                  }
                }
              }
            }
          }
          JOINT RightShoulder
          {
            OFFSET 23.161716 5.296122 -1.380114
            CHANNELS 3 Zrotation Yrotation Xrotation
            JOINT RightArm
            {
              OFFSET -16.027195 -2e-06 1.1e-05
              CHANNELS 3 Zrotation Yrotation Xrotation
              JOINT RightForeArm
              {
                OFFSET -28.736639 4e-06 2e-06
                CHANNELS 3 Zrotation Yrotation Xrotation
                JOINT RightHand
                {
                  OFFSET -27.133619 6e-06 0.0
                  CHANNELS 3 Zrotation Yrotation Xrotation
                  JOINT RightHandThumb1
                  {
                    OFFSET -2.274328 -3.351035 -0.83067
                    CHANNELS 3 Zrotation Yrotation Xrotation
                    JOINT RightHandThumb2
                    {
                      OFFSET -4.703594 -3e-06 2e-06
                      CHANNELS 3 Zrotation Yrotation Xrotation
                      JOINT RightHandThumb3
                      {
                        OFFSET -2.794935 -4e-06 -3e-06
                        CHANNELS 3 Zrotation Yrotation Xrotation
                        JOINT RightHandThumbEnd
                        {
                          OFFSET -3.183852 4e-06 1e-06
                          CHANNELS 3 Zrotation Yrotation Xrotation
                        }
                      }
                    }
                  }
                  JOINT RightHandIndex1
                  {
                    OFFSET -3.253496 -2.33755 -0.127667
                    CHANNELS 3 Zrotation Yrotation Xrotation
                    JOINT RightHandIndex2
                    {
                      OFFSET -6.344434 0.0 0.0
                      CHANNELS 3 Zrotation Yrotation Xrotation
                      JOINT RightHandIndex3
                      {
                        OFFSET -3.654871 0.0 -8e-06
                        CHANNELS 3 Zrotation Yrotation Xrotation
                        JOINT RightHandIndex4
                        {
                          OFFSET -2.327586 -1e-06 0.0
                          CHANNELS 3 Zrotation Yrotation Xrotation
                          JOINT RightHandIndexEnd
                          {
                            OFFSET -2.770001 3e-06 8e-06
                            CHANNELS 3 Zrotation Yrotation Xrotation
                          }
                        }
                      }
                    }
                  }
                  JOINT RightHandMiddle1
                  {
                    OFFSET -3.168223 -0.944764 0.411762
                    CHANNELS 3 Zrotation Yrotation Xrotation
                    JOINT RightHandMiddle2
                    {
                      OFFSET -6.266691 -1e-06 -4e-06
                      CHANNELS 3 Zrotation Yrotation Xrotation
                      JOINT RightHandMiddle3
                      {
                        OFFSET -4.348901 0.0 0.0
                        CHANNELS 3 Zrotation Yrotation Xrotation
                        JOINT RightHandMiddle4
                        {
                          OFFSET -3.00024 2e-06 -4e-06
                          CHANNELS 3 Zrotation Yrotation Xrotation
                          JOINT RightHandMiddleEnd
                          {
                            OFFSET -2.321477 -4e-06 -4e-06
                            CHANNELS 3 Zrotation Yrotation Xrotation
                          }
                        }
                      }
                    }
                  }
                  JOINT RightHandRing1
                  {
                    OFFSET -2.885654 0.293261 -0.119232
                    CHANNELS 3 Zrotation Yrotation Xrotation
                    JOINT RightHandRing2
                    {
                      OFFSET -6.032835 -1e-06 -4e-06
                      CHANNELS 3 Zrotation Yrotation Xrotation
                      JOINT RightHandRing3
                      {
                        OFFSET -4.33881 0.0 -4e-06
                        CHANNELS 3 Zrotation Yrotation Xrotation
                        JOINT RightHandRing4
                        {
                          OFFSET -2.654903 -4e-06 -4e-06
                          CHANNELS 3 Zrotation Yrotation Xrotation
                          JOINT RightHandRingEnd
                          {
                            OFFSET -1.935122 0.0 4e-06
                            CHANNELS 3 Zrotation Yrotation Xrotation
                          }
                        }
                      }
                    }
                  }
                  JOINT RightHandPinky1
                  {
                    OFFSET -2.866241 1.503904 -0.60527
                    CHANNELS 3 Zrotation Yrotation Xrotation
                    JOINT RightHandPinky2
                    {
                      OFFSET -5.553177 -2e-06 0.0
                      CHANNELS 3 Zrotation Yrotation Xrotation
                      JOINT RightHandPinky3
                      {
                        OFFSET -3.062664 -1e-06 -4e-06
                        CHANNELS 3 Zrotation Yrotation Xrotation
                        JOINT RightHandPinky4
                        {
                          OFFSET -1.546529 2e-06 4e-06
                          CHANNELS 3 Zrotation Yrotation Xrotation
                          JOINT RightHandPinkyEnd
                          {
                            OFFSET -1.952341 0.0 -4e-06
                            CHANNELS 3 Zrotation Yrotation Xrotation
                          }
                        }
                      }
                    }
                  }
                }
              }
            }
          }
        }
      }
    }
    JOINT LeftLeg
    {
      OFFSET -8.443107 2.567604 10.043214
      CHANNELS 3 Zrotation Yrotation Xrotation
      JOINT LeftShin
      {
        OFFSET 43.229198 1e-06 -1e-06
        CHANNELS 3 Zrotation Yrotation Xrotation
        JOINT LeftFoot
        {
          OFFSET 42.298611 1e-06 1e-06
          CHANNELS 3 Zrotation Yrotation Xrotation
          JOINT LeftToeBase
          {
            OFFSET 14.165858 1e-06 0.0
            CHANNELS 3 Zrotation Yrotation Xrotation
            JOINT LeftToeEnd
            {
              OFFSET 6.7141 -0.234461 0.0
              CHANNELS 3 Zrotation Yrotation Xrotation
            }
          }
        }
      }
    }
    JOINT RightLeg
    {
      OFFSET -8.303923 2.592729 -10.047278
      CHANNELS 3 Zrotation Yrotation Xrotation
      JOINT RightShin
      {
        OFFSET -43.369682 0.0 1e-06
        CHANNELS 3 Zrotation Yrotation Xrotation
        JOINT RightFoot
        {
          OFFSET -42.260784 4e-06 2e-06
          CHANNELS 3 Zrotation Yrotation Xrotation
          JOINT RightToeBase
          {
            OFFSET -14.222245 -2e-06 -1e-06
            CHANNELS 3 Zrotation Yrotation Xrotation
            JOINT RightToeEnd
            {
              OFFSET -6.660062 0.232574 -2e-06
              CHANNELS 3 Zrotation Yrotation Xrotation
            }
          }
        }
      }
    }
  }
}
MOTION
Frames: 4
Frame Time: 0.03333333333333333
0.0 0.0 0.0 0.0 -0.0 0.0 -0.705567 99.85244 6.181419 93.23243 2.336839 90.115829 3.293455 0.194549 0.172596 -10.206261 -0.286183 0.575285 18.955191 -0.812491 -2.062926 27.859516 -6.735289 3.138839 -2.29067 -0.853297 3.431185 -19.235188 -2.238017 5.391196 5e-06 -0.0 -0.0 -0.098484 0.034982 -0.084799 0.128385 0.166558 -0.068484 0.171311 -0.108247 -0.088412 -107.53968 -72.75489 126.46994 26.477224 -50.811981 22.886957 41.982037 -1.302901 -0.463874 23.679464 25.425907 11.85007 17.636625 -26.322729 52.411182 -19.466658 -14.395596 29.410378 -0.0 -8.774819 0.0 15.248683 -18.681288 6.456051 -0.609775 -1.79565 -3.889327 -4.807087 -11.04681 -2.937849 4e-06 -20.976021 1e-06 -5.01997 -25.033558 -4.031874 7e-06 0.0 -2e-06 -10.634531 -5.686971 -3.565585 10.573271 -17.922947 -3.113898 5e-06 -13.821209 1e-06 -0.501782 -31.181505 -4.02701 -11.536553 -59.115952 7.264819 -13.982712 -7.150197 -2.87504 13.772724 -8.401494 -3.218242 0.347734 -34.211552 0.771656 -0.963031 -17.73337 2.62102 -0.0 1e-06 -0.0 -17.346413 -20.095215 -4.201779 21.757555 -1.638373 3.866426 0.0 -6.338824 1e-06 -1.69759 -22.591745 -6.194003 0.0 -5e-06 -2e-06 72.635529 -77.392403 127.386879 40.957996 -45.019848 14.620259 39.111271 0.355345 0.307407 6.672603 24.807329 21.534851 22.182108 -20.375885 49.933308 -16.701817 -16.74353 28.47653 -2e-06 -12.690601 -1e-06 16.772711 -18.316978 2.290495 -0.105919 -1.513855 -4.275881 -5.03904 -5.612873 -2.953556 5e-06 -11.020519 -3e-06 -6.111296 -15.895329 -3.840471 -0.0 -0.0 -1e-06 -10.283369 -5.680288 -4.341838 11.028292 -11.302403 -2.372633 -1.384268 -14.238579 -6.320121 -0.625436 -26.924187 -3.827601 -4.437268 -49.635067 -4.033916 -13.708523 -7.363474 -3.720938 18.141146 -14.052739 -3.242677 7e-06 -18.78727 -3e-06 -0.429711 -8.456041 2.555503 0.0 0.0 0.0 -15.923532 -20.094482 -5.473583 30.41921 -7.190824 1.735923 3e-06 -8.162925 -1e-06 -1.861901 -22.861465 -6.167943 -0.0 -3e-06 0.0 -178.501343 -2.45658 -7.570153 12.413461 -0.018319 -0.099129 -76.399612 -3.935351 -10.184381 -5.638732 1.629016 2.143655 -0.999997 0.0 0.0 2.059872 -11.055124 -7.455091 13.202342 -0.057888 0.284891 -81.297325 6.634673 -6.734039 -5.448782 0.671571 1.676382 -1.000001 0.0 0.0 
0.0 0.0 0.0 0.0 -0.0 0.0 -0.505627 99.935516 6.387456 93.216034 2.234516 89.992043 3.210985 0.164986 0.118275 -10.234434 -0.252253 0.587228 18.800426 -0.765039 -2.059307 27.624447 -6.583924 3.163103 -2.270897 -0.784433 3.455221 -18.948965 -2.269746 5.279451 4e-06 -0.0 1e-06 -0.114661 0.022406 -0.052509 0.124266 0.165077 -0.030642 0.165033 -0.13121 -0.063518 -106.584541 -72.65686 125.534424 24.612089 -51.0825 24.069948 41.559559 -1.736446 -0.60835 24.828314 23.636284 13.71286 17.636633 -26.322737 52.41119 -19.466665 -14.395604 29.410393 -1e-06 -8.774824 -2e-06 15.290989 -18.573372 6.339058 -0.609777 -1.795657 -3.889328 -4.80709 -11.046813 -2.937853 5e-06 -20.976025 0.0 -5.019972 -25.033564 -4.031876 7e-06 -0.0 0.0 -10.634533 -5.686967 -3.565586 10.573277 -17.922955 -3.113902 6e-06 -13.821211 1e-06 -0.501777 -31.181511 -4.027013 -11.349963 -59.223007 7.22325 -13.982714 -7.150198 -2.875044 13.772731 -8.401494 -3.218244 0.347738 -34.211555 0.771654 -0.963027 -17.733372 2.621023 -1e-06 0.0 -1e-06 -17.346415 -20.095217 -4.201779 21.757559 -1.638378 3.866427 0.0 -6.338825 0.0 -1.697587 -22.591749 -6.194007 0.0 -6e-06 -4e-06 72.42955 -76.994553 127.865814 38.784279 -45.765736 16.200729 39.142967 0.351821 0.359385 7.036012 24.378424 21.526596 22.182121 -20.3759 49.933346 -16.701818 -16.743532 28.47654 -2e-06 -12.690603 -0.0 16.73638 -18.274506 2.367711 -0.10592 -1.513858 -4.275883 -5.039042 -5.612873 -2.953557 5e-06 -11.020526 -3e-06 -6.111299 -15.895338 -3.840471 -0.0 0.0 0.0 -10.283373 -5.680287 -4.341841 11.028297 -11.302409 -2.372633 -1.384268 -14.238586 -6.320124 -0.625437 -26.924196 -3.827601 -4.448335 -49.879662 -3.880063 -13.708526 -7.363475 -3.720942 18.141153 -14.052743 -3.242675 6e-06 -18.787271 -2e-06 -0.429713 -8.456044 2.555505 0.0 0.0 0.0 -15.923538 -20.094484 -5.473588 30.419222 -7.190829 1.735925 2e-06 -8.16293 0.0 -1.861899 -22.861479 -6.167943 -1e-06 -2e-06 -0.0 -178.08606 -2.287791 -7.63146 11.606432 -0.006107 -0.029305 -76.081924 -4.035383 -10.310015 -5.620465 1.630649 2.141072 -1.000001 1e-06 -0.0 2.487224 -11.143883 -7.634562 12.279352 -0.048575 0.248402 -80.718056 6.861672 -6.752769 -5.574839 0.621802 1.661859 -1.000003 -0.0 -0.0 
0.0 0.0 0.0 0.0 -0.0 0.0 -0.362413 99.955681 6.419014 93.222092 2.137544 89.85199 3.148325 0.104332 0.109857 -10.247342 -0.243879 0.567339 18.761076 -0.666878 -2.035149 27.375114 -6.46868 3.192141 -2.290378 -0.723766 3.480531 -18.781631 -2.31185 5.254847 5e-06 0.0 0.0 -0.113445 0.022567 -0.04919 0.114618 0.170338 -0.022892 0.157621 -0.135954 -0.066538 -106.384369 -72.547928 125.358505 23.014229 -51.098038 25.163069 41.22279 -1.991433 -0.650858 25.514578 22.322302 14.832131 17.636631 -26.322735 52.411205 -19.46666 -14.3956 29.410389 -0.0 -8.774822 -2e-06 15.310985 -18.564743 6.27626 -0.609776 -1.795653 -3.889327 -4.80709 -11.046808 -2.937852 4e-06 -20.976015 0.0 -5.019969 -25.033556 -4.031883 5e-06 0.0 0.0 -10.634536 -5.68697 -3.565586 10.573275 -17.922951 -3.113902 4e-06 -13.821209 1e-06 -0.50178 -31.181505 -4.027014 -11.301902 -59.272381 7.196047 -13.982713 -7.150196 -2.875045 13.772728 -8.401493 -3.21824 0.347736 -34.211544 0.771656 -0.963028 -17.73337 2.621022 -1e-06 0.0 0.0 -17.346422 -20.095217 -4.201784 21.757557 -1.638374 3.866426 2e-06 -6.338825 1e-06 -1.697589 -22.591742 -6.194004 0.0 -4e-06 -2e-06 71.442253 -76.611702 129.09639 36.534855 -46.1674 17.69698 39.278866 0.301047 0.339592 7.439932 24.247435 21.471869 22.182116 -20.375891 49.933315 -16.701817 -16.74353 28.47653 -3e-06 -12.690601 -1e-06 16.652733 -18.222685 2.430809 -0.10592 -1.513857 -4.275881 -5.03904 -5.612868 -2.953556 5e-06 -11.02052 -2e-06 -6.111296 -15.89533 -3.840471 0.0 0.0 2e-06 -10.283371 -5.680288 -4.341836 11.028294 -11.302405 -2.372634 -1.384268 -14.238581 -6.320123 -0.625434 -26.924189 -3.827602 -4.385663 -49.95573 -3.85488 -13.708526 -7.363476 -3.720936 18.14115 -14.052735 -3.242676 7e-06 -18.78727 -2e-06 -0.42971 -8.456042 2.555503 0.0 0.0 -0.0 -15.923534 -20.094482 -5.473583 30.419214 -7.190824 1.735927 2e-06 -8.162926 0.0 -1.861901 -22.861467 -6.167941 -1e-06 -3e-06 -1e-06 -178.002502 -2.1675 -7.798759 11.292975 -0.003649 0.00401 -76.041962 -3.973044 -10.335875 -5.594779 1.614663 2.142955 -0.999998 1e-06 1e-06 2.486907 -11.26741 -7.779065 12.015343 -0.039324 0.206994 -80.501137 7.179537 -6.868442 -5.605916 0.603071 1.659059 -1.000002 0.0 0.0 
0.0 0.0 0.0 0.0 -0.0 0.0 -0.246688 99.929398 6.356963 93.231689 2.094413 89.680397 3.137373 0.032758 0.111061 -10.265182 -0.244905 0.548125 18.797459 -0.591838 -1.991473 27.172308 -6.345492 3.220829 -2.30395 -0.692709 3.527703 -18.822905 -2.302376 5.260926 4e-06 -0.0 -0.0 -0.107776 0.023752 -0.051856 0.103436 0.173605 -0.021679 0.148649 -0.136904 -0.074216 -106.555077 -72.469788 125.605148 21.892353 -50.987457 25.870098 40.663185 -2.149305 -0.668002 25.795847 21.707678 15.435321 17.636631 -26.322739 52.411213 -19.466667 -14.395597 29.410402 -1e-06 -8.774822 1e-06 15.318492 -18.54446 6.253583 -0.609776 -1.795651 -3.889328 -4.807092 -11.046816 -2.937852 4e-06 -20.976023 -1e-06 -5.019969 -25.033571 -4.031882 3e-06 0.0 2e-06 -10.634536 -5.686973 -3.56559 10.573272 -17.922955 -3.113901 2e-06 -13.821214 0.0 -0.501775 -31.181511 -4.027022 -11.260587 -59.300289 7.196975 -13.982715 -7.150202 -2.875043 13.772731 -8.401495 -3.218242 0.347736 -34.211559 0.771652 -0.963028 -17.733379 2.621018 -1e-06 1e-06 2e-06 -17.346424 -20.095224 -4.201779 21.757561 -1.638376 3.866428 1e-06 -6.338826 1e-06 -1.697587 -22.591753 -6.194008 0.0 -4e-06 -1e-06 70.336922 -76.266396 130.377655 34.606899 -46.424896 19.354273 39.203495 0.344931 0.338068 7.719428 24.195187 21.608892 22.182117 -20.375895 49.933323 -16.701815 -16.743528 28.476536 -3e-06 -12.690602 -2e-06 16.556459 -18.15423 2.473685 -0.105919 -1.513857 -4.275883 -5.039042 -5.612875 -2.953557 3e-06 -11.020523 -2e-06 -6.111298 -15.895334 -3.840472 0.0 -0.0 0.0 -10.283373 -5.680292 -4.34184 11.028296 -11.302406 -2.372634 -1.384269 -14.238586 -6.320122 -0.625437 -26.9242 -3.827604 -4.336665 -49.937725 -3.831327 -13.708527 -7.363478 -3.720939 18.141151 -14.052744 -3.242675 6e-06 -18.787271 -4e-06 -0.429711 -8.456045 2.555504 0.0 -0.0 -1e-06 -15.923538 -20.094492 -5.473586 30.419218 -7.190826 1.735925 2e-06 -8.162927 -1e-06 -1.861901 -22.861473 -6.167945 -0.0 -3e-06 -3e-06 -178.086304 -2.091843 -8.093461 11.359051 -0.007712 0.013649 -76.226257 -3.858185 -10.331607 -5.583277 1.607943 2.143339 -0.999999 0.0 0.0 2.32964 -11.389194 -7.863472 12.058959 -0.041456 0.177321 -80.61586 7.456289 -7.032691 -5.62209 0.592049 1.657802 -1.000003 0.0 0.0 
